<svg width="5638" height="6426" viewBox="0 0 5638 6426" fill="none" xmlns="http://www.w3.org/2000/svg">
<path d="M2970.23 15H5336.51C5511.83 15 5649.92 164.469 5636.07 339.242L5563.73 1252.04L5563.73 1252.05L5402.73 2913.05L5402.72 2913.05L5293.73 4213.04V4213.05L5168.92 5575.07C5157.63 5698.29 5071.96 5801.99 4953.09 5836.34L3478.37 6262.48L3478.36 6262.48L2915.36 6419.48L2915.33 6419.49L2915.29 6419.5L2863.25 6426L2863.19 6426L2863.12 6426L2810.17 6419.5L2810.13 6419.49L2810.09 6419.48L664.689 5797.29C545.413 5762.7 459.704 5658.29 449.006 5534.56L253.729 3276.04V3276.04L0.677275 211.822C-8.74165 97.7679 81.2845 3.2599e-05 195.727 0H195.73L2970.23 15ZM1019.67 1243L1019.73 1243.56L1094.23 1900.06L1094.28 1900.5L1094.72 1900.5L2731.97 1913.77C2752.81 1913.94 2758.89 1942.3 2739.94 1950.99L2137.52 2227.54L1157.53 2644.54L1157.18 2644.69L1157.23 2645.06L1242.73 3318.06L1242.79 3318.5H3691.73V3562.47L3625.26 4258.08L2873.63 4405.01L2873.61 4405.01L2770.73 4429.49L1986.19 4240.6L1940.73 3690.46L1940.69 3690H1267.19L1267.23 3690.53L1342.23 4790.03L1342.25 4790.38L1342.59 4790.48L2741.09 5187.48L2741.16 5187.5H2873.8L2873.87 5187.48L4243.87 4790.48L4244.19 4790.38L4244.23 4790.04L4440.23 2602.54L4440.27 2602H3051.14C3029.96 2602 3023.97 2572.98 3043.42 2564.59L4583.93 1900.46L4584.23 1900.33V1243H1019.67Z" fill="#1B73BA"/>
</svg>
